<mxfile host="app.diagrams.net" agent="Mozilla/5.0 (Macintosh; Intel Mac OS X 10.15; rv:132.0) Gecko/20100101 Firefox/132.0" version="24.8.4" pages="2">
  <diagram name="Página-1" id="jiIdBsKb_Kx3YhufEab-">
    <mxGraphModel dx="1123" dy="489" grid="1" gridSize="10" guides="1" tooltips="1" connect="1" arrows="1" fold="1" page="1" pageScale="1" pageWidth="827" pageHeight="1169" math="0" shadow="0">
      <root>
        <mxCell id="0" />
        <mxCell id="1" parent="0" />
        <mxCell id="2u_az9TfumvkT8iqNFUR-1" value="&lt;h1 style=&quot;font-size: 24px;&quot;&gt;&amp;nbsp; Domain&lt;/h1&gt;&lt;div&gt;&amp;nbsp; &amp;nbsp; http://londonschool.linkeddata.es/&lt;/div&gt;" style="rounded=1;whiteSpace=wrap;html=1;fillColor=#0050ef;strokeColor=#001DBC;fontColor=#ffffff;align=left;" parent="1" vertex="1">
          <mxGeometry x="34" y="200" width="320" height="210" as="geometry" />
        </mxCell>
        <mxCell id="2u_az9TfumvkT8iqNFUR-4" value="&lt;h2&gt;Ontology&lt;/h2&gt;&lt;h4&gt;&lt;span style=&quot;font-weight: normal;&quot;&gt;ontology&lt;/span&gt;/&lt;br&gt;&lt;/h4&gt;" style="rounded=1;whiteSpace=wrap;html=1;fillColor=#0050ef;fontColor=#ffffff;strokeColor=#001DBC;" parent="1" vertex="1">
          <mxGeometry x="474" y="200" width="120" height="120" as="geometry" />
        </mxCell>
        <mxCell id="2u_az9TfumvkT8iqNFUR-5" value="&lt;h2&gt;Data&lt;/h2&gt;&lt;h4&gt;&lt;span style=&quot;font-weight: normal;&quot;&gt;resource/&lt;/span&gt;&lt;br&gt;&lt;/h4&gt;" style="rounded=1;whiteSpace=wrap;html=1;fillColor=#1ba1e2;fontColor=#ffffff;strokeColor=#006EAF;labelBackgroundColor=none;" parent="1" vertex="1">
          <mxGeometry x="474" y="320" width="120" height="90" as="geometry" />
        </mxCell>
        <mxCell id="2u_az9TfumvkT8iqNFUR-6" value="&lt;h2&gt;Class&lt;/h2&gt;&lt;div&gt;[ontologyName]#[className]&lt;br&gt;&lt;/div&gt;" style="rounded=1;whiteSpace=wrap;html=1;fillColor=#0050ef;fontColor=#ffffff;strokeColor=#001DBC;" parent="1" vertex="1">
          <mxGeometry x="594" y="200" width="200" height="70" as="geometry" />
        </mxCell>
        <mxCell id="2u_az9TfumvkT8iqNFUR-9" value="&lt;h1&gt;Path&lt;/h1&gt;&lt;div&gt;school/&lt;/div&gt;" style="rounded=1;whiteSpace=wrap;html=1;fillColor=#1ba1e2;fontColor=#ffffff;strokeColor=#006EAF;" parent="1" vertex="1">
          <mxGeometry x="354" y="200" width="120" height="210" as="geometry" />
        </mxCell>
        <mxCell id="2YtF1bEcX8Soiyjvu18K-2" value="&lt;h2&gt;Property&lt;/h2&gt;&lt;div&gt;[ontologyName]#[propertyName]&lt;br&gt;&lt;/div&gt;" style="rounded=1;whiteSpace=wrap;html=1;fillColor=#0050ef;fontColor=#ffffff;strokeColor=#001DBC;" vertex="1" parent="1">
          <mxGeometry x="594" y="270" width="200" height="70" as="geometry" />
        </mxCell>
        <mxCell id="2YtF1bEcX8Soiyjvu18K-3" value="&lt;h2&gt;Individual&lt;/h2&gt;&lt;div&gt;[className]/[identifier]&lt;br&gt;&lt;/div&gt;" style="rounded=1;whiteSpace=wrap;html=1;fillColor=#0050ef;fontColor=#ffffff;strokeColor=#001DBC;" vertex="1" parent="1">
          <mxGeometry x="594" y="340" width="200" height="70" as="geometry" />
        </mxCell>
        <mxCell id="2YtF1bEcX8Soiyjvu18K-4" value="&lt;div&gt;Uso para school&lt;/div&gt;" style="text;strokeColor=none;fillColor=none;html=1;fontSize=24;fontStyle=1;verticalAlign=middle;align=center;" vertex="1" parent="1">
          <mxGeometry x="100" y="430" width="100" height="40" as="geometry" />
        </mxCell>
        <mxCell id="2YtF1bEcX8Soiyjvu18K-5" value="&lt;div&gt;Tipo clase:&lt;/div&gt;&lt;div&gt;&lt;br&gt;&lt;/div&gt;&lt;div&gt;&lt;div&gt;&lt;div&gt;http://londonschool.linkeddata.es/school/ontology#school&lt;/div&gt;&lt;div&gt;&lt;div&gt;&lt;div&gt;http://londonschool.linkeddata.es/school/ontology#id&lt;/div&gt;&lt;div&gt;&lt;div&gt;&lt;div&gt;http://londonschool.linkeddata.es/school/ontology#name&lt;/div&gt;&lt;div&gt;&lt;div&gt;&lt;div&gt;http://londonschool.linkeddata.es/school/ontology#type&lt;/div&gt;&lt;div&gt;&lt;div&gt;&lt;div&gt;&lt;div&gt;&lt;div&gt;http://londonschool.linkeddata.es/school/ontology#address&lt;/div&gt;&lt;div&gt;&lt;div&gt;http://londonschool.linkeddata.es/school/ontology#status&lt;/div&gt;&lt;div&gt;&lt;div&gt;http://londonschool.linkeddata.es/school/ontology#town&lt;/div&gt;&lt;/div&gt;&lt;div&gt;&lt;div&gt;http://londonschool.linkeddata.es/school/ontology#wardname&lt;/div&gt;&lt;div&gt;&lt;div&gt;http://londonschool.linkeddata.es/school/ontology#weblink&lt;/div&gt;&lt;div&gt;&lt;div&gt;http://londonschool.linkeddata.es/school/ontology#x&lt;/div&gt;&lt;div&gt;&lt;div&gt;http://londonschool.linkeddata.es/school/ontology#y&lt;/div&gt;&lt;/div&gt;&lt;/div&gt;&lt;/div&gt;&lt;/div&gt;&lt;/div&gt;&lt;/div&gt;&lt;/div&gt;&lt;/div&gt;&lt;/div&gt;&lt;/div&gt;&lt;/div&gt;&lt;/div&gt;&lt;/div&gt;&lt;/div&gt;&lt;/div&gt;&lt;/div&gt;&lt;/div&gt;&lt;div&gt;&lt;br&gt;&lt;/div&gt;&lt;div&gt;Tipo schema properties&lt;br&gt;&lt;/div&gt;&lt;div&gt;&lt;br&gt;&lt;/div&gt;&lt;div&gt;http://londonschool.linkeddata.es/school/ontology#hasSchoolId&lt;/div&gt;&lt;div&gt;&lt;div&gt;http://londonschool.linkeddata.es/school/ontology#hasName&lt;/div&gt;&lt;div&gt;&lt;div&gt;http://londonschool.linkeddata.es/school/ontology#hasType&lt;/div&gt;&lt;div&gt;&lt;div&gt;http://londonschool.linkeddata.es/school/ontology#hasPhase&lt;/div&gt;&lt;div&gt;&lt;div&gt;http://londonschool.linkeddata.es/school/ontology#hasAddress&lt;/div&gt;&lt;div&gt;&lt;div&gt;http://londonschool.linkeddata.es/school/ontology#placedIn&lt;br&gt;&lt;/div&gt;&lt;/div&gt;&lt;div&gt;&lt;div&gt;http://londonschool.linkeddata.es/school/ontology#hasStatus&lt;/div&gt;&lt;div&gt;&lt;div&gt;http://londonschool.linkeddata.es/school/ontology#hasWardname&lt;/div&gt;&lt;div&gt;&lt;div&gt;http://londonschool.linkeddata.es/school/ontology#hasWeblink&lt;/div&gt;&lt;div&gt;&lt;div&gt;http://londonschool.linkeddata.es/school/ontology#hasX&lt;/div&gt;&lt;div&gt;&lt;div&gt;http://londonschool.linkeddata.es/school/ontology#hasY&lt;/div&gt;&lt;div&gt;&lt;br&gt;&lt;/div&gt;&lt;div&gt;Tipo schema individuals&lt;/div&gt;&lt;div&gt;&lt;br&gt;&lt;/div&gt;&lt;div&gt;&lt;div&gt;http://londonschool.linkeddata.es/school/resource/[nombre_clase]/[nombre_individuo]&lt;/div&gt;&lt;/div&gt;&lt;/div&gt;&lt;/div&gt;&lt;/div&gt;&lt;/div&gt;&lt;/div&gt;&lt;/div&gt;&lt;/div&gt;&lt;/div&gt;&lt;/div&gt;" style="text;strokeColor=none;fillColor=none;html=1;whiteSpace=wrap;verticalAlign=middle;overflow=hidden;" vertex="1" parent="1">
          <mxGeometry x="40" y="460" width="510" height="520" as="geometry" />
        </mxCell>
      </root>
    </mxGraphModel>
  </diagram>
  <diagram id="TumwQ-ZiN9Ou0f1Bjo-C" name="Página-2">
    <mxGraphModel dx="1072" dy="466" grid="1" gridSize="10" guides="1" tooltips="1" connect="1" arrows="1" fold="1" page="1" pageScale="1" pageWidth="827" pageHeight="1169" math="0" shadow="0">
      <root>
        <mxCell id="0" />
        <mxCell id="1" parent="0" />
        <mxCell id="D_g7MKnjggQpLayHD2uh-1" value="&lt;h1 style=&quot;font-size: 24px;&quot;&gt;&amp;nbsp; Domain&lt;/h1&gt;&lt;div&gt;&amp;nbsp; &amp;nbsp; http://londonhousing.linkeddata.es/&lt;/div&gt;" style="rounded=1;whiteSpace=wrap;html=1;fillColor=#0050ef;strokeColor=#001DBC;fontColor=#ffffff;align=left;" vertex="1" parent="1">
          <mxGeometry x="34" y="200" width="320" height="210" as="geometry" />
        </mxCell>
        <mxCell id="D_g7MKnjggQpLayHD2uh-2" value="&lt;h2&gt;Ontology&lt;/h2&gt;&lt;h4&gt;&lt;span style=&quot;font-weight: normal;&quot;&gt;ontology&lt;/span&gt;/&lt;br&gt;&lt;/h4&gt;" style="rounded=1;whiteSpace=wrap;html=1;fillColor=#0050ef;fontColor=#ffffff;strokeColor=#001DBC;" vertex="1" parent="1">
          <mxGeometry x="474" y="200" width="120" height="120" as="geometry" />
        </mxCell>
        <mxCell id="D_g7MKnjggQpLayHD2uh-3" value="&lt;h2&gt;Data&lt;/h2&gt;&lt;h4&gt;&lt;span style=&quot;font-weight: normal;&quot;&gt;resource/&lt;/span&gt;&lt;br&gt;&lt;/h4&gt;" style="rounded=1;whiteSpace=wrap;html=1;fillColor=#1ba1e2;fontColor=#ffffff;strokeColor=#006EAF;labelBackgroundColor=none;" vertex="1" parent="1">
          <mxGeometry x="474" y="320" width="120" height="90" as="geometry" />
        </mxCell>
        <mxCell id="D_g7MKnjggQpLayHD2uh-4" value="&lt;h2&gt;Class&lt;/h2&gt;&lt;div&gt;[ontologyName]#[className]&lt;br&gt;&lt;/div&gt;" style="rounded=1;whiteSpace=wrap;html=1;fillColor=#0050ef;fontColor=#ffffff;strokeColor=#001DBC;" vertex="1" parent="1">
          <mxGeometry x="594" y="200" width="200" height="70" as="geometry" />
        </mxCell>
        <mxCell id="D_g7MKnjggQpLayHD2uh-5" value="&lt;h1&gt;Path&lt;/h1&gt;&lt;div&gt;house/&lt;/div&gt;" style="rounded=1;whiteSpace=wrap;html=1;fillColor=#1ba1e2;fontColor=#ffffff;strokeColor=#006EAF;" vertex="1" parent="1">
          <mxGeometry x="354" y="200" width="120" height="210" as="geometry" />
        </mxCell>
        <mxCell id="D_g7MKnjggQpLayHD2uh-6" value="&lt;h2&gt;Property&lt;/h2&gt;&lt;div&gt;[ontologyName]#[propertyName]&lt;br&gt;&lt;/div&gt;" style="rounded=1;whiteSpace=wrap;html=1;fillColor=#0050ef;fontColor=#ffffff;strokeColor=#001DBC;" vertex="1" parent="1">
          <mxGeometry x="594" y="270" width="200" height="70" as="geometry" />
        </mxCell>
        <mxCell id="D_g7MKnjggQpLayHD2uh-7" value="&lt;h2&gt;Individual&lt;/h2&gt;&lt;div&gt;[className]/[identifier]&lt;br&gt;&lt;/div&gt;" style="rounded=1;whiteSpace=wrap;html=1;fillColor=#0050ef;fontColor=#ffffff;strokeColor=#001DBC;" vertex="1" parent="1">
          <mxGeometry x="594" y="340" width="200" height="70" as="geometry" />
        </mxCell>
        <mxCell id="D_g7MKnjggQpLayHD2uh-8" value="&lt;div&gt;Uso para house&lt;/div&gt;" style="text;strokeColor=none;fillColor=none;html=1;fontSize=24;fontStyle=1;verticalAlign=middle;align=center;" vertex="1" parent="1">
          <mxGeometry x="40" y="430" width="210" height="40" as="geometry" />
        </mxCell>
        <mxCell id="D_g7MKnjggQpLayHD2uh-9" value="&lt;div&gt;Tipo clase:&lt;/div&gt;&lt;div&gt;&lt;br&gt;&lt;/div&gt;&lt;div&gt;&lt;div&gt;&lt;div&gt;http://londonhousing.linkeddata.es/house/ontology#house&lt;/div&gt;&lt;div&gt;&lt;div&gt;&lt;div&gt;http://londonhousing.linkeddata.es/house/ontology#id&lt;/div&gt;&lt;div&gt;&lt;div&gt;http://londonhousing.linkeddata.es/house/ontology#town&lt;/div&gt;&lt;div&gt;&lt;div&gt;&lt;div&gt;http://londonhousing.linkeddata.es/house/ontology#averagePrice&lt;/div&gt;&lt;div&gt;&lt;div&gt;&lt;div&gt;http://londonhousing.linkeddata.es/house/ontology#housesSold&lt;/div&gt;&lt;/div&gt;&lt;/div&gt;&lt;/div&gt;&lt;/div&gt;&lt;/div&gt;&lt;/div&gt;&lt;/div&gt;&lt;/div&gt;&lt;/div&gt;&lt;div&gt;&lt;br&gt;&lt;/div&gt;&lt;div&gt;Tipo schema properties&lt;br&gt;&lt;/div&gt;&lt;div&gt;&lt;br&gt;&lt;/div&gt;&lt;div&gt;&lt;div&gt;&lt;div&gt;&lt;div&gt;&lt;div&gt;&lt;div&gt;&lt;div&gt;&lt;div&gt;&lt;div&gt;&lt;div&gt;&lt;div&gt;&lt;div&gt;&lt;div&gt;http://londonhousing.linkeddata.es/house/ontology#hasHouseId&lt;/div&gt;&lt;div&gt;&lt;div&gt;http://londonhousing.linkeddata.es/house/ontology#placedIn&lt;/div&gt;&lt;div&gt;&lt;div&gt;&lt;div&gt;http://londonhousing.linkeddata.es/house/ontology#hasAveragePrice&lt;/div&gt;&lt;div&gt;&lt;div&gt;&lt;div&gt;http://londonhousing.linkeddata.es/house/ontology#sold&lt;/div&gt;&lt;/div&gt;&lt;/div&gt;&lt;/div&gt;&lt;/div&gt;&lt;/div&gt;&lt;/div&gt;&lt;/div&gt;&lt;/div&gt;&lt;div&gt;&lt;br&gt;&lt;/div&gt;&lt;div&gt;Tipo schema individuals&lt;/div&gt;&lt;div&gt;&lt;br&gt;&lt;/div&gt;&lt;div&gt;&lt;div&gt;&lt;div&gt;&lt;div&gt;&lt;div&gt;http://londonhousing.linkeddata.es/house/resource/[className]/[identifier]&lt;/div&gt;&lt;/div&gt;&lt;/div&gt;&lt;/div&gt;&lt;/div&gt;&lt;/div&gt;&lt;/div&gt;&lt;/div&gt;&lt;/div&gt;&lt;/div&gt;&lt;/div&gt;&lt;/div&gt;&lt;/div&gt;&lt;/div&gt;" style="text;strokeColor=none;fillColor=none;html=1;whiteSpace=wrap;verticalAlign=middle;overflow=hidden;" vertex="1" parent="1">
          <mxGeometry x="40" y="480" width="510" height="330" as="geometry" />
        </mxCell>
      </root>
    </mxGraphModel>
  </diagram>
</mxfile>
